<?xml version="1.0" standalone="no"?>
<!DOCTYPE svg PUBLIC "-//W3C//DTD SVG 20010904//EN"
 "http://www.w3.org/TR/2001/REC-SVG-20010904/DTD/svg10.dtd">
<svg version="1.0" xmlns="http://www.w3.org/2000/svg"
 width="211.000000pt" height="48.000000pt" viewBox="0 0 211.000000 48.000000"
 preserveAspectRatio="xMidYMid meet">
<metadata>
Created by potrace 1.10, written by Peter Selinger 2001-2011
</metadata>
<g transform="translate(0.000000,48.000000) scale(0.100000,-0.100000)"
fill="#000000" stroke="none">
<path d="M135 426 c-27 -13 -58 -32 -67 -42 -25 -29 -48 -89 -48 -126 0 -38
29 -107 53 -127 23 -18 21 -28 -10 -57 -14 -13 -23 -27 -19 -31 10 -11 39 10
51 36 6 13 16 20 25 17 106 -36 165 -32 230 15 64 46 96 139 71 204 -4 10 -4
39 2 63 5 24 7 46 4 48 -3 3 -21 1 -42 -5 -29 -8 -44 -6 -78 9 -56 26 -112 25
-172 -4z m251 -24 c6 -4 15 -18 19 -32 4 -14 6 -23 4 -20 -2 3 -15 17 -28 33
-23 25 -20 36 5 19z m-132 -19 c20 -17 20 -17 6 0 -14 18 -13 18 25 3 64 -27
83 -50 90 -112 4 -29 -16 -104 -27 -104 -2 0 -28 25 -58 56 -53 55 -53 56 -15
30 45 -29 58 -32 73 -13 9 11 -4 18 -61 36 -50 16 -84 34 -110 60 l-38 36 28
12 c39 17 63 16 87 -4z m-74 -119 c41 -41 67 -72 58 -68 -10 3 -18 9 -18 14 0
4 -18 14 -39 22 -36 15 -41 15 -55 -1 -13 -15 -8 -18 67 -40 100 -30 116 -40
91 -58 -20 -14 -54 -18 -54 -5 0 4 -31 18 -70 31 -66 21 -70 24 -81 61 -9 31
-9 49 0 80 6 22 15 40 19 40 4 0 41 -34 82 -76z"/>
<path d="M245 349 c-9 -14 -7 -15 35 -24 l35 -7 -27 21 c-30 24 -34 25 -43 10z"/>
<path d="M339 296 c14 -14 27 -26 29 -26 10 0 -26 44 -39 48 -8 3 -3 -7 10
-22z"/>
<path d="M1120 345 c0 -8 9 -15 20 -15 11 0 20 7 20 15 0 8 -9 15 -20 15 -11
0 -20 -7 -20 -15z"/>
<path d="M1831 338 c0 -22 1 -22 9 -3 6 13 8 -9 8 -65 0 -57 -3 -77 -8 -60
l-8 25 -1 -27 c-1 -21 4 -28 17 -28 15 0 18 6 14 33 l-4 32 29 -32 c16 -18 34
-33 41 -33 18 0 15 8 -17 39 l-28 28 28 26 c34 32 36 37 9 37 -11 0 -19 -3
-17 -7 1 -5 -9 -19 -22 -32 l-24 -24 5 57 c4 49 2 56 -14 56 -12 0 -18 -7 -17
-22z"/>
<path d="M515 260 l0 -80 35 0 c62 0 80 9 80 41 0 19 -5 29 -15 29 -8 0 -15 5
-15 10 0 6 5 10 10 10 6 0 10 13 10 29 0 33 -14 41 -68 41 l-37 0 0 -80z m79
55 c9 -25 -4 -45 -30 -45 -20 0 -24 5 -24 30 0 25 4 30 24 30 13 0 26 -7 30
-15z m1 -95 c0 -20 -6 -26 -27 -28 -25 -3 -28 0 -28 28 0 28 3 31 28 28 21 -2
27 -8 27 -28z"/>
<path d="M1000 260 c0 -67 3 -80 16 -80 13 0 15 7 11 35 -6 34 -5 35 29 35 19
0 34 5 34 10 0 6 -16 10 -35 10 -37 0 -38 2 -29 37 4 15 15 23 38 26 22 3 18
4 -16 5 l-48 2 0 -80z"/>
<path d="M675 301 c3 -5 -3 -12 -12 -14 -10 -3 0 -4 22 -3 34 1 40 -2 43 -21
3 -19 -1 -23 -21 -23 -38 0 -57 -10 -57 -30 0 -21 20 -29 73 -28 l37 0 0 44
c0 24 -4 44 -9 44 -5 0 -13 9 -16 20 -4 14 -15 20 -36 20 -17 0 -28 -4 -24 -9z
m53 -88 c-2 -10 -13 -19 -26 -21 -17 -3 -22 2 -22 17 0 16 6 21 26 21 19 0 25
-5 22 -17z"/>
<path d="M780 245 c0 -55 3 -65 18 -65 14 0 16 8 14 49 -3 43 -1 49 19 54 33
9 39 1 39 -54 0 -37 4 -49 15 -49 23 0 20 81 -4 108 -20 24 -56 29 -64 10 -4
-10 -6 -10 -6 0 -1 6 -8 12 -16 12 -12 0 -15 -14 -15 -65z m17 -7 c-2 -13 -4
-5 -4 17 -1 22 1 32 4 23 2 -10 2 -28 0 -40z"/>
<path d="M1128 245 c-2 -53 0 -65 12 -65 12 0 14 12 12 65 -2 36 -7 65 -12 65
-5 0 -10 -29 -12 -65z"/>
<path d="M1190 245 c0 -37 4 -65 10 -65 6 0 10 20 10 45 0 39 4 47 25 57 14 6
25 15 25 20 0 13 -38 9 -43 -4 -4 -10 -6 -10 -6 0 -1 6 -5 12 -11 12 -6 0 -10
-28 -10 -65z"/>
<path d="M1292 290 c-15 -25 -16 -82 0 -98 14 -14 74 -16 83 -2 3 6 -9 9 -32
7 -33 -2 -38 1 -41 21 -3 20 1 22 37 22 33 0 41 4 41 18 0 21 -34 52 -58 52
-9 0 -23 -9 -30 -20z m56 -23 c3 -12 -3 -17 -22 -17 -25 0 -35 18 -19 34 12
12 38 2 41 -17z"/>
<path d="M1390 300 c0 -5 4 -10 8 -10 5 0 14 -25 21 -55 10 -42 17 -55 31 -55
13 0 19 11 24 45 7 46 26 63 26 23 0 -42 12 -68 30 -68 14 0 21 13 31 55 7 30
16 55 21 55 4 0 8 5 8 10 0 6 -9 10 -20 10 -11 0 -19 -3 -18 -7 4 -17 -14
-103 -22 -103 -8 0 -26 86 -22 103 1 4 -7 7 -18 7 -11 0 -19 -3 -18 -7 4 -17
-14 -103 -22 -103 -8 0 -26 86 -22 103 1 4 -7 7 -18 7 -11 0 -20 -4 -20 -10z"/>
<path d="M1618 291 c-25 -25 -24 -87 1 -101 49 -26 101 -1 101 49 0 59 -63 92
-102 52z m67 -51 c0 -41 -2 -45 -25 -45 -21 0 -26 5 -28 33 -5 47 4 64 30 60
20 -3 23 -9 23 -48z"/>
<path d="M1740 245 c0 -50 3 -65 14 -65 11 0 16 14 18 48 2 38 7 49 26 57 12
5 22 13 22 17 0 13 -38 9 -43 -4 -4 -10 -6 -10 -6 0 -1 6 -8 12 -16 12 -12 0
-15 -14 -15 -65z"/>
<path d="M1973 295 c-20 -22 -15 -40 12 -55 14 -7 25 -22 25 -33 0 -15 -5 -18
-25 -13 -15 4 -25 2 -25 -4 0 -7 15 -10 38 -8 32 3 37 7 40 29 2 21 -2 28 -22
33 -36 9 -37 51 -2 44 17 -4 23 -1 19 9 -7 17 -45 16 -60 -2z"/>
</g>
</svg>
